<svg width="83" height="94" viewBox="0 0 83 94" fill="none" xmlns="http://www.w3.org/2000/svg">
<g filter="url(#filter0_f_3535_27132)">
<path d="M70.0848 80.1406C75.6048 69.1847 71.6838 50.281 59.4178 33.4806C46.9928 16.4621 29.9448 6.99674 17.8508 9.31789L16.8849 8.00818L10.7848 12.5008L10.8019 12.5239C-0.291131 21.4309 2.44283 44.5389 17.1158 64.6358C31.7888 84.7337 52.9098 94.2995 64.7018 86.3517L64.7189 86.3748L71.1748 81.62L70.0848 80.1406Z" fill="url(#paint0_linear_3535_27132)"/>
<path d="M70.819 81.8822C59.138 90.4859 37.5949 80.9231 22.7009 60.5229C7.80794 40.1237 5.20403 16.6119 16.885 8.00823C28.566 -0.595388 50.1089 8.96741 65.0029 29.3666C79.8969 49.7678 82.5 73.2796 70.819 81.8822Z" fill="url(#paint1_linear_3535_27132)"/>
<path d="M65.9407 73.807C56.6597 80.6429 39.5417 73.0446 27.7077 56.8358C15.8737 40.6269 13.8047 21.9452 23.0867 15.1093C32.3677 8.27342 49.4857 15.8716 61.3197 32.0805C73.1527 48.2904 75.2217 66.9711 65.9407 73.807Z" fill="url(#paint2_linear_3535_27132)"/>
<path d="M29.0568 55.8424C17.7878 40.4069 15.5528 22.7427 24.0758 16.4652C32.5988 10.1878 48.7008 17.6394 59.9698 33.0749C71.2398 48.5114 73.4738 66.1756 64.9508 72.453C56.4288 78.7295 40.3268 71.2789 29.0568 55.8424ZM59.7897 33.2074C48.5937 17.8714 32.6318 10.4419 24.2078 16.646C15.7838 22.8501 18.0398 40.3738 29.2358 55.7098C40.4328 71.0459 56.3948 78.4754 64.8188 72.2713C73.2428 66.0681 70.9867 48.5435 59.7897 33.2074Z" fill="white"/>
<path d="M55.7767 50.3523C57.7887 53.1094 59.3747 56.3485 60.0057 59.3376L60.1248 59.9121C61.3228 65.604 58.6387 68.2546 54.1357 65.821L53.9357 65.7135L54.5787 68.7578L49.3337 65.9234L48.6978 62.8831L46.5457 61.72L47.1887 64.7644L41.9437 61.93L41.3077 58.8887L40.0787 58.2247L37.4847 56.8226L36.0817 50.1956L38.6827 51.6008L37.0027 43.636L35.6047 37.004L34.0957 29.8376L31.4948 28.4325L30.0967 21.8005L32.6978 23.2056L33.9197 23.8665L33.1348 20.1372L38.3737 22.9686L39.1587 26.6979L41.3097 27.861L40.5247 24.1317L45.7637 26.963L46.5547 30.7235C50.7367 33.2626 54.9237 39.3542 56.0347 44.6293L56.1477 45.1727C56.6337 47.4617 56.4577 49.2324 55.7767 50.3523ZM54.8798 57.0787L54.7607 56.5042C54.3327 54.4703 52.6747 52.107 51.0587 51.2342L50.3848 50.8706L42.2457 46.4724L43.9257 54.4372L45.0358 55.0368L52.7388 59.199C54.3488 60.0678 55.3148 59.1227 54.8798 57.0787ZM39.3328 32.67L40.8477 39.8394L48.9807 44.2346C50.4277 45.017 51.2927 44.1703 50.9077 42.3413L50.7887 41.7949C50.4037 39.9659 48.9177 37.8496 47.4707 37.0672L40.4478 33.2726L39.3328 32.67Z" fill="white"/>
</g>
<defs>
<filter id="filter0_f_3535_27132" x="0" y="0.847168" width="82.1257" height="92.2972" filterUnits="userSpaceOnUse" color-interpolation-filters="sRGB">
<feFlood flood-opacity="0" result="BackgroundImageFix"/>
<feBlend mode="normal" in="SourceGraphic" in2="BackgroundImageFix" result="shape"/>
<feGaussianBlur stdDeviation="2" result="effect1_foregroundBlur_3535_27132"/>
</filter>
<linearGradient id="paint0_linear_3535_27132" x1="11.3012" y1="12.1219" x2="65.5412" y2="85.7696" gradientUnits="userSpaceOnUse">
<stop offset="1e-08" stop-color="#8CA5E7"/>
<stop offset="1" stop-color="#4369E9"/>
</linearGradient>
<linearGradient id="paint1_linear_3535_27132" x1="16.8861" y1="8.0089" x2="71.126" y2="81.6564" gradientUnits="userSpaceOnUse">
<stop offset="1e-08" stop-color="#96B3F9"/>
<stop offset="1" stop-color="#4870FA"/>
</linearGradient>
<linearGradient id="paint2_linear_3535_27132" x1="23.0871" y1="15.1097" x2="66.1843" y2="73.6275" gradientUnits="userSpaceOnUse">
<stop stop-color="#4870FA"/>
<stop offset="1" stop-color="#96B3F9"/>
</linearGradient>
</defs>
</svg>
