<svg width="21" height="15" viewBox="0 0 21 15" fill="none" xmlns="http://www.w3.org/2000/svg">
<path d="M2.256 0.299805H18.156C19.656 0.299805 20.412 1.0078 20.412 2.4478V12.5518C20.412 13.9798 19.656 14.6998 18.156 14.6998H2.256C0.756 14.6998 0 13.9798 0 12.5518V2.4478C0 1.0078 0.756 0.299805 2.256 0.299805ZM10.2 10.6198L18.288 3.9838C18.576 3.7438 18.804 3.1918 18.444 2.6998C18.096 2.2078 17.46 2.1958 17.04 2.4958L10.2 7.1278L3.372 2.4958C2.952 2.1958 2.316 2.2078 1.968 2.6998C1.608 3.1918 1.836 3.7438 2.124 3.9838L10.2 10.6198Z" fill="white"/>
</svg>
