<svg width="38" height="38" viewBox="0 0 38 38" fill="none" xmlns="http://www.w3.org/2000/svg">
<path d="M10.5569 12.0917C10.3877 13.8967 10.2689 17.091 11.3347 18.4507C11.3347 18.4507 10.833 14.9417 15.3306 10.539C17.1416 8.76666 17.5602 6.35603 16.9278 4.54806C16.5686 3.52385 15.9125 2.67775 15.3425 2.08697C15.01 1.73963 15.2653 1.16666 15.7492 1.18744C18.6764 1.31806 23.4205 2.1315 25.4363 7.19025C26.321 9.41088 26.3863 11.7057 25.9647 14.0392C25.6975 15.5295 24.7475 18.8426 26.9147 19.2493C28.4614 19.5402 29.2096 18.3112 29.545 17.4265C29.6846 17.0584 30.1685 16.9663 30.4297 17.2603C33.0422 20.232 33.2649 23.7321 32.7246 26.7454C31.6796 32.5701 25.7807 36.8095 19.9203 36.8095C12.5994 36.8095 6.77174 32.6206 5.26064 25.0384C4.65205 21.9776 4.9608 15.9213 9.68112 11.6463C10.0314 11.3257 10.6044 11.6107 10.5569 12.0917Z" fill="url(#paint0_radial_3535_26408)"/>
<path d="M22.5951 22.984C19.8965 19.5106 21.1048 15.5473 21.7668 13.9679C21.8559 13.7601 21.6184 13.5642 21.4314 13.6918C20.2706 14.4815 17.8926 16.34 16.7853 18.9554C15.2861 22.4912 15.3929 24.222 16.2806 26.3357C16.815 27.6093 16.1945 27.8795 15.8828 27.927C15.58 27.9745 15.3009 27.7726 15.0782 27.5618C14.4377 26.9469 13.9812 26.1656 13.7601 25.3056C13.7126 25.1215 13.4721 25.0711 13.3623 25.2225C12.5311 26.3714 12.1006 28.215 12.0798 29.5182C12.0145 33.5468 15.3425 36.8125 19.3681 36.8125C24.4417 36.8125 28.1378 31.2015 25.2225 26.5109C24.3764 25.1453 23.5807 24.2517 22.5951 22.984Z" fill="url(#paint1_radial_3535_26408)"/>
<defs>
<radialGradient id="paint0_radial_3535_26408" cx="0" cy="0" r="1" gradientUnits="userSpaceOnUse" gradientTransform="translate(18.4703 36.9018) rotate(-179.751) scale(20.9557 34.3841)">
<stop offset="0.314" stop-color="#FF9800"/>
<stop offset="0.662" stop-color="#FF6D00"/>
<stop offset="0.972" stop-color="#F44336"/>
</radialGradient>
<radialGradient id="paint1_radial_3535_26408" cx="0" cy="0" r="1" gradientUnits="userSpaceOnUse" gradientTransform="translate(19.6471 16.0485) rotate(90.5787) scale(21.9261 16.501)">
<stop offset="0.214" stop-color="#FFF176"/>
<stop offset="0.328" stop-color="#FFF27D"/>
<stop offset="0.487" stop-color="#FFF48F"/>
<stop offset="0.672" stop-color="#FFF7AD"/>
<stop offset="0.793" stop-color="#FFF9C4"/>
<stop offset="0.822" stop-color="#FFF8BD" stop-opacity="0.804"/>
<stop offset="0.863" stop-color="#FFF6AB" stop-opacity="0.529"/>
<stop offset="0.91" stop-color="#FFF38D" stop-opacity="0.209"/>
<stop offset="0.941" stop-color="#FFF176" stop-opacity="0"/>
</radialGradient>
</defs>
</svg>
