<svg width="21" height="24" viewBox="0 0 21 24" fill="none" xmlns="http://www.w3.org/2000/svg">
<path d="M6.24407 21.6156C6.75175 22.2575 7.39866 22.7757 8.13595 23.1311C8.87325 23.4864 9.68164 23.6695 10.5001 23.6666C11.3185 23.6695 12.1269 23.4864 12.8642 23.1311C13.6015 22.7757 14.2484 22.2575 14.7561 21.6156C11.9317 21.9984 9.06849 21.9984 6.24407 21.6156ZM18.3751 8.49992V9.32125C18.3751 10.3071 18.6551 11.2708 19.1824 12.0909L20.4751 14.1011C21.6546 15.9374 20.7539 18.4329 18.7017 19.0128C13.3395 20.5317 7.66069 20.5317 2.29841 19.0128C0.246239 18.4329 -0.654427 15.9374 0.525073 14.1011L1.81774 12.0909C2.34691 11.2642 2.62753 10.3028 2.62624 9.32125V8.49992C2.62624 3.98958 6.15191 0.333252 10.5001 0.333252C14.8482 0.333252 18.3751 3.98958 18.3751 8.49992Z" fill="white"/>
</svg>
